<?xml version="1.0" encoding="utf-8"?>
<!-- Generator: Adobe Illustrator 19.0.1, SVG Export Plug-In . SVG Version: 6.00 Build 0)  -->
<svg version="1.1" id="Layer_1" xmlns="http://www.w3.org/2000/svg" xmlns:xlink="http://www.w3.org/1999/xlink" x="0px" y="0px"
	 viewBox="0 0 100 100" style="enable-background:new 0 0 100 100;" xml:space="preserve">
<style type="text/css">
	.st0{fill:#22145C;}
	.st1{fill:url(#SVGID_1_);}
	.st2{fill:#9BCEF2;}
</style>
<g>
	<path class="st0" d="M19.6,44.4c-1.3-9.9,1.9-19.5,7.9-26.8c-3.5,1.2-6.9,3-10,5.3c-2.1,1.6-3.9,3.2-5.5,5.1
		c-2.7,6.8-3.8,14.3-2.8,22c2.4,18.8,16.3,33.4,33.9,37.6c6.6-0.5,13.1-2.8,18.7-7c3-2.3,5.5-4.9,7.6-7.8c-2.8,1.1-5.8,1.9-9,2.3
		C40.3,77.6,22.1,63.9,19.6,44.4z M98.2,38.8C95.1,14.5,72.6-2.7,48,0.4c-10.2,1.3-19.2,5.9-26,12.6c6.3-3.7,13.1-5.6,20.1-6
		c2.9-1.1,6-1.9,9.2-2.4c20-2.5,38.3,11.2,40.8,30.7c0.8,6.4-0.2,12.7-2.6,18.3c-0.5,10.8-5,21.3-13.1,29.2
		C91.4,74,100.5,57,98.2,38.8z"/>
	<linearGradient id="SVGID_1_" gradientUnits="userSpaceOnUse" x1="10.116" y1="9.8648" x2="69.6328" y2="69.3815">
		<stop  offset="0" style="stop-color:#EFEFF0"/>
		<stop  offset="1" style="stop-color:#8E9C9D"/>
	</linearGradient>
	<path class="st1" d="M22.6,54.8c0.4-3,1.3-5.9,2.5-8.8c6.3-15,21.5-23.7,36.7-22.4l0,0c3.6,0.3,7.1,1.1,10.6,2.6
		c6.4,2.6,11.7,6.9,15.4,12.2c0,0.1,0.1,0.2,0.1,0.3c1.7,2.4,2.9,5,3.9,7.7c0.7-3.6,0.9-7.4,0.4-11.2c-0.3-2.4-0.9-4.8-1.7-7
		c-4.6-5.8-10.7-10.6-18-13.7c-17.6-7.3-37.2-2.7-49.6,10.2c-2.9,5.9-4.2,12.7-3.3,19.6C20,48.1,21.1,51.5,22.6,54.8z M29.3,81.7
		c-9.1-5.9-16.1-15.1-19-26.1c0,8.7,2.6,17.1,7.4,24.3c5,3.8,10.7,6.3,16.7,7.3C32.5,85.6,30.8,83.7,29.3,81.7z M98.5,44.3
		c0,7.2-1.7,14-4.8,20.1c-0.4,3-1.3,6-2.5,9c-6.8,16.2-23.8,25-40.2,21.8c-6,0.8-12.2,0.4-18-1.2c1.6,0.9,3.2,1.7,4.9,2.4
		c22.8,9.5,49.1-1.2,58.7-23.8C100.5,63.4,100.9,53.4,98.5,44.3z"/>
	<path class="st2" d="M87.8,38.4c-3.7-5.3-8.9-9.6-15.3-12.2c-3.5-1.5-7.1-2.3-10.7-2.6c2.4,1.9,4.6,4.1,6.5,6.6
		c12.2,15.9,9.4,38.5-6.4,50.4c-15.8,11.9-38.4,8.6-50.7-7.3c-12.2-16-9.4-38.5,6.4-50.4c5.2-4,11.2-6.2,17.3-6.9
		c9.6-4.9,21-6.2,32-3.3c-15.1-8.4-34.5-7.8-49.2,3.2C-2,30.7-5.8,58.6,9.2,78.1c15,19.6,43.1,23.4,62.8,8.5
		C87.3,75.1,93,55.7,87.8,38.4z"/>
</g>
</svg>
